<?xml version="1.0" encoding="UTF-8"?>
<svg width="48" height="48" version="1.1" viewBox="0 0 120 120" xml:space="preserve" xmlns="http://www.w3.org/2000/svg"><title data-i18n-key="app.name">BusRouter SG</title><circle cx="60" cy="60" r="56.7" fill="#fff" stroke="#248623" stroke-width="6.6"/><path d="M86.08 36.76c-.8-3.65-3.28-5.1-7.04-6.55-3.66-1.45-12.5-3.15-19.03-3.2-6.54.05-15.37 1.76-19.06 3.2-3.73 1.44-6.24 2.9-7 6.54l-2.8 20.15v27.77h4.84V89c-.02 5.33 8.3 5.33 8.32.02v-4.35h31.42V89c-.02 5.33 8.3 5.33 8.3.02v-4.35h4.85V56.9l-2.8-20.14zM48.12 32.1H71.9c2.32 0 2.32 3.27 0 3.28H48.13c-2.35 0-2.35-3.24 0-3.24v-.04zm-8 43.87c-2.2 0-4-1.67-4-3.74 0-2.05 1.78-3.72 3.94-3.72 2.18 0 4 1.68 4 3.73-.03 2.08-1.82 3.73-4.03 3.74h.08zM59.7 59h-21.2c-2.1.02-2.5-1.38-2.32-2.76l2.2-14.63c.3-1.76.94-2.92 3.44-2.94H78.2c2.53 0 3.14 1.18 3.45 2.94l2.24 14.63c.2 1.4-.25 2.77-2.3 2.77H59.73zm20.16 16.97c-2.15 0-4-1.67-4-3.74 0-2.05 1.84-3.72 4-3.72 2.23 0 4 1.68 4.08 3.73 0 2.08-1.78 3.73-4 3.74h-.08z" fill="#248623"/><g transform="matrix(.0625 0 0 .0625 58.706 115.92)" fill="#f00"><path d="m700.7 65.231c-94-69.333-164.17-136.67-210.5-202-46.333-65.333-69.5-129.33-69.5-192 0-83.333 26-151.83 78-205.5s119.33-80.5 202-80.5c82.667 0 150 26.833 202 80.5s78 122.17 78 205.5c0 62.667-23.167 126.67-69.5 192-46.333 65.333-116.5 132.67-210.5 202zm0-320c22 0 40.833-7.8333 56.5-23.5s23.5-34.5 23.5-56.5-7.8333-40.833-23.5-56.5-34.5-23.5-56.5-23.5c-22 0-40.833 7.8333-56.5 23.5-15.667 15.667-23.5 34.5-23.5 56.5s7.8334 40.833 23.5 56.5c15.667 15.667 34.5 23.5 56.5 23.5z" fill="#f00"/></g><circle cx="90.893" cy="149" r="0" fill="#248623" stroke="#248623" stroke-width="2.5"/><circle cx="45.638" cy="70.95" r="0" fill="#248623" stroke="#248623" stroke-width="2.5"/><circle cx="43.529" cy="83.99" r="0" fill="#248623" stroke="#248623" stroke-width="2.5"/><circle cx="102.5" cy="95" r="5" fill="#fff" stroke-width="0"/></svg>
