<?xml version="1.0" encoding="UTF-8" standalone="no"?>
<!-- Created with PixiEditor (https://pixieditor.net) -->

<svg
   version="1.1"
   viewBox="0 0 48 48"
   id="svg4"
   sodipodi:docname="logo.svg"
   inkscape:version="1.4.2 (f4327f4, 2025-05-13)"
   xmlns:inkscape="http://www.inkscape.org/namespaces/inkscape"
   xmlns:sodipodi="http://sodipodi.sourceforge.net/DTD/sodipodi-0.dtd"
   xmlns="http://www.w3.org/2000/svg"
   xmlns:svg="http://www.w3.org/2000/svg">
  <defs
     id="defs4" />
  <sodipodi:namedview
     id="namedview4"
     pagecolor="#ffffff"
     bordercolor="#000000"
     borderopacity="0.25"
     inkscape:showpageshadow="2"
     inkscape:pageopacity="0.0"
     inkscape:pagecheckerboard="0"
     inkscape:deskcolor="#d1d1d1"
     inkscape:zoom="8"
     inkscape:cx="48.625"
     inkscape:cy="18.125"
     inkscape:window-width="1920"
     inkscape:window-height="1166"
     inkscape:window-x="-11"
     inkscape:window-y="-11"
     inkscape:window-maximized="1"
     inkscape:current-layer="svg4" />
  <ellipse
     cx="24.000002"
     cy="24"
     fill="#ffffff"
     fill-opacity="1"
     stroke="#248623"
     stroke-width="2.63999"
     opacity="1"
     id="Ellipse"
     rx="22.680002"
     ry="22.680004" />
  <ellipse
     style="fill:#ffffff;fill-opacity:1;stroke:#a8ce40;stroke-width:0.00000003;stroke-dasharray:none"
     id="path2"
     cx="41.166874"
     cy="37.987656"
     rx="2.4583008"
     ry="2.3008592" />
  <path
     d="m 34.432002,14.703997 c -0.319999,-1.46 -1.312,-2.04 -2.815999,-2.62 -1.464001,-0.58 -5.000002,-1.26 -7.612001,-1.28 -2.616001,0.02 -6.148001,0.704 -7.624001,1.28 -1.492001,0.576 -2.496,1.16 -2.8,2.616 l -1.12,8.060002 V 33.868 h 1.936 v 1.732002 c -0.008,2.132 3.32,2.132 3.328,0.008 V 33.868 h 12.568002 v 1.732001 c -0.008,2.132 3.32,2.132 3.32,0.008 V 33.868 h 1.939999 V 22.759999 Z M 19.248001,12.839996 h 9.512001 c 0.928001,0 0.928001,1.308001 0,1.312001 h -9.508001 c -0.94,0 -0.94,-1.296001 0,-1.296001 v -0.016 z m -3.2,17.548005 c -0.88,0 -1.600001,-0.668 -1.600001,-1.496 0,-0.820001 0.712001,-1.488001 1.576001,-1.488001 0.872,0 1.6,0.672 1.6,1.492001 -0.01196,0.832 -0.728,1.492 -1.612,1.496 h 0.032 z m 7.832,-6.788002 H 15.4 c -0.839999,0.008 -0.999999,-0.552 -0.927999,-1.104 l 0.88,-5.852002 c 0.120002,-0.704 0.376,-1.168 1.375999,-1.176 h 14.552002 c 1.012,0 1.256,0.472 1.38,1.176 l 0.896,5.852002 c 0.08,0.56 -0.100002,1.108 -0.919999,1.108 h -8.744002 z m 8.064001,6.788002 c -0.859999,0 -1.599999,-0.668 -1.599999,-1.496 0,-0.820001 0.736,-1.488001 1.599999,-1.488001 0.892,0 1.6,0.672 1.632001,1.492001 0,0.832 -0.712,1.492 -1.6,1.496 h -0.032 z"
     fill-rule="nonzero"
     fill="#248623"
     fill-opacity="1"
     stroke="#ffffff"
     stroke-width="0"
     stroke-linecap="butt"
     stroke-linejoin="miter"
     opacity="1"
     id="Path" />
  <g
     opacity="1"
     id="New folder"
     transform="matrix(8.1725005,0,0,8.1725014,-8.2681145e-7,-245.90764)"
     style="stroke-width:0;stroke-dasharray:none">
    <path
       d="m 700.7,65.231 c -94,-69.333 -164.17,-136.67 -210.5,-202 -46.333,-65.333 -69.5,-129.33 -69.5,-192 0,-83.333 26,-151.83 78,-205.5 52,-53.67 119.33,-80.5 202,-80.5 82.667,0 150,26.833 202,80.5 52,53.667 78,122.17 78,205.5 0,62.667 -23.167,126.67 -69.5,192 -46.333,65.333 -116.5,132.67002 -210.5,202 z m 0,-320 c 22,0 40.833,-7.833 56.5,-23.5 15.667,-15.667 23.5,-34.5 23.5,-56.5 0,-22 -7.833,-40.833 -23.5,-56.5 -15.667,-15.667 -34.5,-23.5 -56.5,-23.5 -22,0 -40.833,7.833 -56.5,23.5 -15.667,15.667 -23.5,34.5 -23.5,56.5 0,22 7.833,40.833 23.5,56.5 15.667,15.667 34.5,23.5 56.5,23.5 z"
       fill-rule="nonzero"
       transform="matrix(0.00304374,0,0,0.00304374,2.8883567,35.76445)"
       fill="#ff0000"
       fill-opacity="1"
       stroke="#ffffff"
       stroke-width="0"
       stroke-linecap="butt"
       stroke-linejoin="miter"
       opacity="1"
       id="path1"
       style="stroke-width:0.00000121;stroke-dasharray:none" />
  </g>
  <ellipse
     cx="90.893"
     cy="149"
     rx="0"
     ry="0"
     transform="matrix(1, 0, 0, 1, 0, 0)"
     fill="#248623"
     fill-opacity="1"
     stroke="#248623"
     stroke-width="2.5"
     opacity="1"
     id="ellipse1" />
  <ellipse
     cx="45.638"
     cy="70.95"
     rx="0"
     ry="0"
     transform="matrix(1, 0, 0, 1, 0, 0)"
     fill="#248623"
     fill-opacity="1"
     stroke="#248623"
     stroke-width="2.5"
     opacity="1"
     id="ellipse2" />
  <ellipse
     cx="43.529"
     cy="83.99"
     rx="0"
     ry="0"
     transform="matrix(1, 0, 0, 1, 0, 0)"
     fill="#248623"
     fill-opacity="1"
     stroke="#248623"
     stroke-width="2.5"
     opacity="1"
     id="ellipse3" />
</svg>
